<svg width="120" height="16" viewBox="0 0 120 16" fill="none" xmlns="http://www.w3.org/2000/svg">
<path d="M26.2703 16C24.2066 16 22.6457 15.4785 21.5874 14.4354C20.5291 13.3924 20 12.0039 20 10.27V2.20319H23.4724V10.148C23.4724 10.9744 23.7106 11.6449 24.1868 12.1597C24.6762 12.6609 25.3707 12.9115 26.2703 12.9115C27.1566 12.9115 27.8378 12.6609 28.314 12.1597C28.8035 11.6449 29.0482 10.9744 29.0482 10.148V2.20319H32.5008V10.2496C32.5008 11.9971 31.9717 13.3924 30.9134 14.4354C29.8684 15.4785 28.3206 16 26.2703 16Z" fill="white"/>
<path d="M47.3034 15.7562H43.2753L40.3982 11.2046L37.521 15.7562H33.4731L38.0964 8.80697L33.7707 2.20319H37.7988L40.3982 6.44993L42.9578 2.20319H47.0057L42.6999 8.78665L47.3034 15.7562Z" fill="white"/>
<path d="M57.9942 15.7562H48.2912V2.20319H57.9942V5.25109H51.7041V7.3643H57.8553V10.4122H51.7041V12.7083H57.9942V15.7562Z" fill="white"/>
<path d="M63.3887 15.7562H59.9758V2.20319H66.6032C68.0319 2.20319 69.1563 2.63667 69.9764 3.50363C70.7966 4.35704 71.2067 5.42719 71.2067 6.71408C71.2067 7.98742 70.7966 9.05757 69.9764 9.92453C69.1563 10.7779 68.0319 11.2046 66.6032 11.2046H63.3887V15.7562ZM66.1468 8.15675C66.6098 8.15675 66.9868 8.02806 67.2779 7.77068C67.5821 7.5133 67.7342 7.1611 67.7342 6.71408C67.7342 6.25351 67.5821 5.89453 67.2779 5.63716C66.9868 5.37978 66.6098 5.25109 66.1468 5.25109H63.3887V8.15675H66.1468Z" fill="white"/>
<path d="M84.0166 15.7562H80.1076L77.8852 11.2046H76.1391V15.7562H72.7262V2.20319H79.3536C80.7823 2.20319 81.9067 2.6299 82.7268 3.48331C83.547 4.33672 83.9571 5.41364 83.9571 6.71408C83.9571 7.79777 83.6925 8.68505 83.1634 9.37591C82.6475 10.0532 82.0323 10.5206 81.318 10.7779L84.0166 15.7562ZM78.8377 8.15675C79.3007 8.15675 79.6909 8.02806 80.0084 7.77068C80.3259 7.5133 80.4846 7.15433 80.4846 6.69376C80.4846 6.24673 80.3259 5.89453 80.0084 5.63716C79.6909 5.37978 79.3007 5.25109 78.8377 5.25109H76.1391V8.15675H78.8377Z" fill="white"/>
<path d="M95.5478 15.7562H85.8447V2.20319H95.5478V5.25109H89.2577V7.3643H95.4089V10.4122H89.2577V12.7083H95.5478V15.7562Z" fill="white"/>
<path d="M102.45 16C100.003 16 98.0453 15.2821 96.5769 13.8462L98.3826 11.225C99.5467 12.417 100.956 13.0131 102.609 13.0131C103.191 13.0131 103.647 12.9115 103.978 12.7083C104.322 12.4915 104.494 12.2206 104.494 11.8955C104.494 11.611 104.309 11.3807 103.939 11.2046C103.568 11.015 103.105 10.8795 102.55 10.7983C101.994 10.7034 101.392 10.5612 100.744 10.3716C100.096 10.1684 99.4938 9.93807 98.9382 9.6807C98.3826 9.40977 97.9196 8.98307 97.5492 8.40058C97.1788 7.81809 96.9936 7.12046 96.9936 6.30769C96.9936 5.11563 97.4632 4.09966 98.4025 3.2598C99.3549 2.41993 100.645 2 102.272 2C104.428 2 106.22 2.6299 107.649 3.88969L105.784 6.38897C104.673 5.45428 103.383 4.98694 101.915 4.98694C100.962 4.98694 100.486 5.31205 100.486 5.96226C100.486 6.21964 100.671 6.44315 101.042 6.6328C101.412 6.8089 101.875 6.94436 102.43 7.03919C102.986 7.13401 103.581 7.28302 104.216 7.48621C104.865 7.67586 105.466 7.90614 106.022 8.17707C106.578 8.44799 107.041 8.86792 107.411 9.43686C107.781 10.0058 107.967 10.6831 107.967 11.4688C107.967 12.8505 107.484 13.9545 106.518 14.7808C105.552 15.5936 104.196 16 102.45 16Z" fill="white"/>
<path d="M114.484 16C112.037 16 110.079 15.2821 108.61 13.8462L110.416 11.225C111.58 12.417 112.989 13.0131 114.642 13.0131C115.225 13.0131 115.681 12.9115 116.012 12.7083C116.356 12.4915 116.528 12.2206 116.528 11.8955C116.528 11.611 116.342 11.3807 115.972 11.2046C115.602 11.015 115.139 10.8795 114.583 10.7983C114.027 10.7034 113.425 10.5612 112.777 10.3716C112.129 10.1684 111.527 9.93807 110.972 9.6807C110.416 9.40977 109.953 8.98307 109.583 8.40058C109.212 7.81809 109.027 7.12046 109.027 6.30769C109.027 5.11563 109.497 4.09966 110.436 3.2598C111.388 2.41993 112.678 2 114.305 2C116.461 2 118.254 2.6299 119.683 3.88969L117.817 6.38897C116.706 5.45428 115.416 4.98694 113.948 4.98694C112.996 4.98694 112.519 5.31205 112.519 5.96226C112.519 6.21964 112.705 6.44315 113.075 6.6328C113.445 6.8089 113.908 6.94436 114.464 7.03919C115.02 7.13401 115.615 7.28302 116.25 7.48621C116.898 7.67586 117.5 7.90614 118.055 8.17707C118.611 8.44799 119.074 8.86792 119.444 9.43686C119.815 10.0058 120 10.6831 120 11.4688C120 12.8505 119.517 13.9545 118.551 14.7808C117.586 15.5936 116.23 16 114.484 16Z" fill="white"/>
<path d="M15.9158 0.217107C15.9093 0.185492 15.8939 0.156392 15.8715 0.13322C15.849 0.110047 15.8204 0.0937616 15.789 0.0862729C13.6972 -0.425627 8.86394 1.39855 6.24533 4.01846C5.77828 4.48216 5.35249 4.98571 4.97281 5.52342C4.1653 5.45192 3.35779 5.51162 2.66956 5.8119C0.727746 6.66733 0.16238 8.89938 0.00487797 9.85955C-0.00405585 9.9121 -0.000686009 9.96601 0.0147224 10.017C0.0301307 10.0681 0.0571574 10.1148 0.0936769 10.1536C0.130196 10.1924 0.175213 10.2222 0.225185 10.2407C0.275157 10.2591 0.328723 10.2657 0.381669 10.2599L3.49993 9.91567C3.50216 10.151 3.51634 10.386 3.54243 10.6199C3.55812 10.7823 3.63015 10.9341 3.74601 11.0489L4.95352 12.2546C5.06831 12.3704 5.21989 12.4425 5.3821 12.4584C5.61445 12.4844 5.84797 12.4986 6.08175 12.5009L5.73961 15.6181C5.7339 15.671 5.74053 15.7246 5.75898 15.7746C5.77743 15.8246 5.8072 15.8696 5.84595 15.9061C5.88471 15.9427 5.93139 15.9697 5.98234 15.9852C6.03329 16.0006 6.08712 16.0041 6.13961 15.9952C7.09713 15.8415 9.33109 15.2756 10.1807 13.332C10.4807 12.6432 10.5422 11.8389 10.4729 11.0346C11.0114 10.6545 11.5158 10.2282 11.9804 9.76053C14.6072 7.14455 16.4194 2.41484 15.9158 0.217107ZM9.35966 6.6398C9.1198 6.39988 8.95641 6.09414 8.89018 5.76127C8.82394 5.42839 8.85782 5.08333 8.98754 4.76973C9.11726 4.45613 9.33699 4.18809 9.61893 3.99949C9.90087 3.8109 10.2324 3.71024 10.5715 3.71024C10.9106 3.71024 11.2421 3.8109 11.524 3.99949C11.8059 4.18809 12.0257 4.45613 12.1554 4.76973C12.2851 5.08333 12.319 5.42839 12.2528 5.76127C12.1865 6.09414 12.0231 6.39988 11.7833 6.6398C11.6242 6.79923 11.4353 6.9257 11.2274 7.012C11.0195 7.09829 10.7966 7.14271 10.5715 7.14271C10.3464 7.14271 10.1235 7.09829 9.91554 7.012C9.70761 6.9257 9.51872 6.79923 9.35966 6.6398Z" fill="#E5E31F"/>
<path d="M4.87137 13.128C4.67565 13.3242 4.36172 13.4007 3.98386 13.4661C3.13492 13.6109 2.38526 12.8767 2.53776 12.0176C2.59598 11.692 2.76813 11.2355 2.87527 11.1283C2.89869 11.1053 2.91428 11.0755 2.91982 11.0431C2.92536 11.0108 2.92058 10.9775 2.90615 10.948C2.89172 10.9185 2.86837 10.8943 2.83943 10.8789C2.81048 10.8634 2.77741 10.8575 2.74491 10.8619C2.27017 10.9201 1.82852 11.1355 1.49025 11.4739C0.650594 12.3151 0.571307 15.4361 0.571307 15.4361C0.571307 15.4361 3.69135 15.3568 4.53101 14.5157C4.87018 14.1774 5.08568 13.7346 5.1428 13.2588C5.15602 13.1094 4.97423 13.0204 4.87137 13.128Z" fill="#E5E31F"/>
</svg>
