<svg width="14" height="14" viewBox="0 0 14 14" fill="none" xmlns="http://www.w3.org/2000/svg">
<path d="M4.10672 0.399493L5.41922 3.46199C5.47497 3.59282 5.48672 3.73822 5.45269 3.8763C5.41866 4.01438 5.3407 4.13768 5.23054 4.22762L3.57351 5.58387C4.57708 7.71238 6.29004 9.42534 8.41855 10.4289L9.7748 8.77188C9.86458 8.66149 9.98787 8.58337 10.126 8.54933C10.2642 8.51528 10.4096 8.52717 10.5404 8.5832L13.6029 9.8957C13.7439 9.9572 13.859 10.066 13.9284 10.2032C13.9978 10.3405 14.0171 10.4977 13.983 10.6477L13.3268 13.4914C13.2934 13.636 13.2119 13.765 13.0958 13.8574C12.9796 13.9498 12.8356 14 12.6872 14C5.67351 14 -0.000314961 8.31524 -0.000315267 1.3125C-0.000410641 1.16405 0.0498318 1.01995 0.142207 0.903732C0.234582 0.787518 0.363631 0.706059 0.508278 0.672657L3.35203 0.0164065C3.50274 -0.0174642 3.66055 0.00225685 3.79829 0.0721764C3.93603 0.142096 4.0451 0.257841 4.10672 0.399493Z" fill="#A9C5E0"/>
</svg>
